<svg xmlns="http://www.w3.org/2000/svg" viewBox="0 0 885 293"><title>Artboard 1</title><g id="b67157b2-10bf-48c6-8e40-f5e6ea9bea1e" data-name="STRAPLINE"><path d="M276.6,243.9a21,21,0,0,0-4.2-8.6,19.6,19.6,0,0,0-8.1-5.8,35,35,0,0,0-12.6-2H231v60.4h20.6a35.2,35.2,0,0,0,12.5-2,20.4,20.4,0,0,0,8.1-5.7,22.2,22.2,0,0,0,4.3-8.7,41.2,41.2,0,0,0,1.3-10.9v-6A45.5,45.5,0,0,0,276.6,243.9Zm-11.3,11.3V260a33.5,33.5,0,0,1-.9,8.5,13.9,13.9,0,0,1-2.7,5.3,11.6,11.6,0,0,1-4.4,2.7,25.1,25.1,0,0,1-6.5.8h-7.6V238h7.7a24.6,24.6,0,0,1,6.5.8,9.6,9.6,0,0,1,4.4,2.7,13.3,13.3,0,0,1,2.6,5.2A33.5,33.5,0,0,1,265.3,255.2Z" style="fill:#fff"/><path d="M366.3,227.5H353.9l-20.6,60.4h12.4l4.8-15.5h19.2l4.9,15.5h12.8Zm.2,34.7H353.7l6.4-20.4Z" style="fill:#fff"/><polygon points="446 238.1 446 287.9 458.2 287.9 458.2 226.1 446 238.1" style="fill:#fff"/><polygon points="533.9 277.3 533.9 227.5 521.6 227.5 521.6 287.9 548.7 287.9 561 277.3 533.9 277.3" style="fill:#fff"/><polygon points="643.2 227.5 630.6 252.6 618.1 227.5 604.5 227.5 624.1 263.6 624.1 289.2 636.4 277.3 636.4 263.6 656.3 227.5 643.2 227.5" style="fill:#fff"/><polygon points="283 5.7 280.2 2.8 280.2 151 228 151 228 5.7 186 5.7 186 151.7 225.8 191.5 302.1 191.5 323 170.2 323 46.3 283 5.7" style="fill:#fff"/><polygon points="695 5.7 692.2 2.8 692.2 151 639.9 151 639.9 5.7 597.9 5.7 597.9 151.7 637.8 191.5 714.1 191.5 735 170.2 735 46.3 695 5.7" style="fill:#fff"/><path d="M558.1,5.7H479.8L461,24.4V151.7l39.9,39.8h76.3l20.9-21.3V46.3ZM503,151V45h52.3V151Z" style="fill:#fff"/><polygon points="461.5 73.1 419.9 73.1 379.9 113.1 419.4 113.1 419.3 151 364.9 151 364.9 45.5 429.9 45.5 429.9 5.5 345.5 5.5 345.5 5.7 345.3 5.7 322.9 28.1 322.9 151.7 362.7 191.5 440.6 191.5 461.5 170.6 461.5 170.2 461.5 73.1" style="fill:#fff"/><path d="M145.3,5.6H6.6L46.4,45.5h.1v146H164.7L186,170.2V46.3Zm-1.7,145.2H88.8V45.5h54.8Z" style="fill:#fff"/><polygon points="880.6 5.7 752.3 5.7 729.2 5.8 729.2 45.5 764.7 45.5 764.7 148.2 807.4 190.8 807.4 45.5 840.8 45.5 880.6 5.7" style="fill:#fff"/><rect x="177.3" y="46.3" width="19.1" height="105.42" transform="translate(373.8 198) rotate(180)" style="fill:#fff"/><rect x="304.2" y="46.2" width="33.8" height="105.62" style="fill:#fff"/><rect x="444.1" y="73.1" width="33.8" height="78.94" style="fill:#fff"/><rect x="582.8" y="46.2" width="37.7" height="105.58" style="fill:#fff"/><rect x="729.8" y="17.7" width="5.2" height="38.02" style="fill:#fff"/></g></svg>